<?xml version="1.0" encoding="utf-8"?>
<!-- Generator: Adobe Illustrator 25.1.0, SVG Export Plug-In . SVG Version: 6.00 Build 0)  -->
<svg version="1.1" id="conluto-logo" xmlns="http://www.w3.org/2000/svg" xmlns:xlink="http://www.w3.org/1999/xlink" x="0px"
	 y="0px" width="190.9px" height="57.6px" viewBox="0 0 190.9 57.6" style="enable-background:new 0 0 190.9 57.6;"
	 xml:space="preserve">
<style type="text/css">
	.st0{fill:#C6906F;}
	.st1{fill:#64A1BB;}
</style>
<path id="Pfad_119" class="st0" d="M188.7,50.1c-1,0-1.9,0.5-2.4,1.3c-0.3-0.8-1.1-1.4-2-1.3c-0.9,0-1.7,0.5-2.1,1.2l-0.2-1.1h-1
	v7.1h1.2v-4.9c0.4-0.7,1-1.2,1.8-1.3c0.6,0,1.2,0.4,1.2,1.4v4.8h1.2v-4.9c0.3-0.7,1-1.3,1.8-1.3c0.8,0,1.2,0.4,1.2,1.5v4.7h1.2v-4.8
	c0.2-1.1-0.6-2.2-1.7-2.4C189,50.1,188.9,50.1,188.7,50.1 M174.4,47.2h-1.2v10.3h1.2v-4.9c0.4-0.8,1.1-1.3,1.9-1.3
	c0.8-0.1,1.5,0.4,1.6,1.2c0,0.1,0,0.3,0,0.4v4.7h1.2v-4.9c0.1-1.2-0.8-2.3-2-2.4c-0.2,0-0.3,0-0.5,0c-0.9,0-1.8,0.4-2.3,1.1
	L174.4,47.2z M166.2,53.4c0.1-1.5,0.9-2.3,2.1-2.3s1.9,1,2,2.3L166.2,53.4z M171.5,53.5c0.1-1.7-1.1-3.3-2.9-3.4c-0.1,0-0.2,0-0.3,0
	c-1.9,0-3.3,1.4-3.3,3.8c-0.2,1.9,1.2,3.5,3.1,3.7c0.1,0,0.2,0,0.3,0c1.1,0,2.2-0.3,3-1.1l-0.6-0.8c-0.6,0.5-1.4,0.8-2.2,0.8
	c-1.2,0.1-2.2-0.8-2.3-1.9c0-0.1,0-0.2,0-0.3h5.2C171.5,54,171.5,53.8,171.5,53.5 M159.4,56.2v-8.4h-1.2v9.5h5.9v-1.1L159.4,56.2
	L159.4,56.2z M150.2,50.1c-1.5,0-2.6,0.8-2.6,2c0,1.2,0.7,1.7,2,2s1.8,0.5,1.8,1.2c0,0.7-0.5,1.1-1.6,1.1c-0.7,0-1.4-0.3-2-0.7
	l-0.4,1c0.7,0.5,1.6,0.8,2.5,0.8c1.8,0,2.8-0.9,2.8-2.2s-1.1-1.8-2.3-2.1c-1.1-0.4-1.7-0.5-1.7-1.2c0-0.7,0.5-1,1.4-1
	c0.7,0,1.4,0.2,1.9,0.6l0.4-0.9C151.8,50.3,151,50,150.2,50.1 M146,50.2h-1.2v4.9c-0.5,0.7-1.3,1.2-2.1,1.2c-0.7,0-1.3-0.4-1.3-1.8
	v-4.5h-1.2v4.8c0,1.8,1,2.6,2.3,2.6c1,0,1.9-0.5,2.5-1.2l0.3,1.1h0.9L146,50.2z M135.2,54.3l1.7,0.2v1.1c-0.4,0.7-1.2,1-1.9,1
	c-0.8,0-1.5-0.3-1.5-1.1C133.5,54.5,134.2,54.3,135.2,54.3 M135.3,50.1c-1,0-2,0.3-2.7,1l0.5,0.8c0.6-0.5,1.3-0.7,2.1-0.7
	c1,0,1.7,0.4,1.7,1.5v0.9c-0.6-0.1-1.2-0.2-1.8-0.2c-1.5,0-2.8,0.5-2.8,2c0,1.5,1.1,2.1,2.6,2.1c0.8,0.1,1.6-0.3,2.2-0.9
	c0.1,0.5,0.6,0.8,1.1,0.8c0.2,0,0.5,0,0.6-0.2v-0.8h-0.3c-0.4,0-0.4-0.3-0.4-0.5v-3.3C138,50.9,137.2,50.1,135.3,50.1 M125.3,50.2
	v-1.8h-0.6l-0.6,0.8v1.1h-1.1v1.1h1.1V56c-0.1,0.8,0.4,1.5,1.2,1.6c0.1,0,0.3,0,0.4,0c0.5,0,1.1-0.2,1.5-0.4l-0.4-0.9
	c-0.3,0.2-0.6,0.3-1,0.3c-0.4,0-0.6-0.2-0.6-0.7v-4.5h1.8v-1.1L125.3,50.2L125.3,50.2z M121.6,47.2h-1.2v10.3h1.2V47.2z M115.4,54.3
	l1.7,0.2v1.1c-0.4,0.7-1.2,1-1.9,1c-0.8,0-1.5-0.3-1.5-1.1C113.7,54.5,114.4,54.3,115.4,54.3 M115.6,50.1c-1,0-2,0.3-2.7,1l0.5,0.8
	c0.6-0.5,1.3-0.7,2.1-0.7c1,0,1.7,0.4,1.7,1.5v0.9c-0.6-0.1-1.2-0.2-1.8-0.2c-1.5,0-2.8,0.5-2.8,2c0,1.5,1.1,2.1,2.6,2.1
	c0.8,0.1,1.6-0.3,2.2-0.9c0.1,0.5,0.6,0.8,1.1,0.8c0.2,0,0.5,0,0.6-0.2v-0.8h-0.3c-0.4,0-0.4-0.3-0.4-0.5v-3.3
	C118.2,50.9,117.4,50.1,115.6,50.1 M110.8,47c-1-0.2-2,0.5-2.1,1.6c0,0.2,0,0.3,0,0.5v1.2h-1.1v1.1h1.1v6.1h1.2v-6.1h1.8v-1.1h-1.8
	V49c0-0.6,0.4-1,1.1-1h0.7l0.2-1C111.6,46.9,111.2,46.9,110.8,47 M106.3,47.1H105v10.4h1.4L106.3,47.1z M98.1,53.3
	c0.1-1.5,0.9-2.3,2.1-2.3s1.9,1,2,2.3L98.1,53.3z M103.4,53.4c0.1-1.7-1.1-3.3-2.9-3.4c-0.1,0-0.2,0-0.3,0c-1.9,0-3.3,1.4-3.3,3.8
	c-0.2,1.9,1.2,3.5,3.1,3.7c0.1,0,0.2,0,0.3,0c1.1,0,2.2-0.3,3-1.1l-0.6-0.8c-0.6,0.5-1.4,0.8-2.2,0.8c-1.2,0.1-2.2-0.8-2.3-1.9
	c0-0.1,0-0.2,0-0.3h5.2C103.3,53.9,103.4,53.7,103.4,53.4 M95.3,50.1h-1.2v7.1h1.2L95.3,50.1z M94.7,47.4c-0.4-0.1-0.7,0.2-0.8,0.6
	c0,0.1,0,0.1,0,0.2c0,0.4,0.4,0.8,0.8,0.8c0.4,0,0.8-0.3,0.8-0.7c0-0.4-0.3-0.8-0.7-0.8C94.7,47.4,94.7,47.4,94.7,47.4 M88.9,57.3
	l3.6-9.5h-1.4L88.2,56l-3-8.3H84l3.6,9.5H88.9z"/>
<path id="Pfad_120" class="st1" d="M100.2,19.6c0-7.7,0.1-12.1,0.4-19.6h-8.4c0.3,7.6,0.4,12,0.4,19.6S92.5,31,92.2,38h8.4
	C100.3,31,100.2,26.8,100.2,19.6"/>
<path id="Pfad_121" class="st1" d="M124.7,34l0.5,4h7.7c-0.3-4.9-0.4-8-0.4-13s0.1-7.5,0.4-12.1h-8.4c0.2,3.5,0.2,5.7,0.2,9.2
	s-0.1,5.7-0.2,7.7s-2.6,2.6-4.2,2.6s-3.4-1.2-3.6-4.1s-0.2-4.4-0.2-7.2s0.1-5.1,0.3-8.3h-8.4c0.3,3.2,0.3,5.2,0.3,8.5
	s-0.2,4.9-0.2,8.2c0,5.4,3.3,8.9,8,8.9S122.6,37.1,124.7,34"/>
<path id="Pfad_122" class="st1" d="M157.5,18.4V13h-7.4c0-2.4,0.2-5.1,0.4-7.7l-8.3,1.6c0.1,2.2,0.2,3.9,0.2,6.2h-3.9v5.4h3.9
	c0,4.2-0.3,7.9-0.3,11.7c0,5.5,3.5,8.5,8.1,8.5c4.6,0,6.6-0.9,8.5-2.5l-1.2-4.3c-1.2,0.7-2.6,1-4,1c-1.8,0.1-3.3-1.3-3.4-3.1
	c0-0.1,0-0.1,0-0.2c-0.2-2.6-0.2-7.1-0.2-11.2L157.5,18.4L157.5,18.4z"/>
<path id="Pfad_123" class="st1" d="M161.9,25.9c0,7.4,5.1,12.7,13.8,12.7s13.8-6.1,13.8-13.3s-5.2-12.9-13.8-12.9
	S161.9,18.5,161.9,25.9 M181.1,25.6c0,4.7-1.6,8.2-5.4,8.2s-5.4-3.6-5.4-8.2s1.7-8.3,5.4-8.3S181.1,20.9,181.1,25.6"/>
<path id="Pfad_124" class="st0" d="M25.8,25.9c0,7.4,5.1,12.7,13.8,12.7s13.8-6.1,13.8-13.3s-5.2-12.9-13.8-12.9
	S25.8,18.5,25.8,25.9 M44.9,25.6c0,4.7-1.6,8.2-5.4,8.2s-5.4-3.6-5.4-8.2s1.7-8.3,5.4-8.3S44.9,20.9,44.9,25.6"/>
<path id="Pfad_125" class="st0" d="M15,17.4c1.8,0,3.6,0.4,5.3,1.1l1.7-5.1c-2.5-1-5.2-1.5-7.9-1.4c-8,0-14,5.7-14,13.2
	c-0.1,7.1,5.6,13,12.7,13.1c0,0,0.1,0,0.1,0c3.9,0,6.7-0.7,9.1-2.3l-1.3-4.8c-1.7,0.8-3.6,1.3-5.5,1.2c-4.2,0-7-2.4-7-7.9
	S10.6,17.4,15,17.4"/>
<path id="Pfad_126" class="st0" d="M67.4,12.8h-7.8c0.3,5.1,0.4,7.7,0.4,12.8s-0.1,7.7-0.4,12.3h8.4c-0.2-3.6-0.2-5.7-0.2-9.3
	s0.1-5.6,0.2-7.7c0.9-1.6,2.6-2.6,4.4-2.6c2,0,3.3,1.3,3.5,4.1c0.2,2.5,0.3,4.9,0.2,7.4c0,3.3-0.1,5.1-0.4,8.2h8.4
	c-0.3-3.3-0.3-5.2-0.3-8.5s0.3-5.1,0.3-8.3c0-5.5-3.3-9.1-8-9.1c-3.4,0-6.6,1.7-8.4,4.7L67.4,12.8z"/>
</svg>
